<?xml version="1.0" encoding="utf-8"?>
<!-- Generator: Adobe Illustrator 15.0.0, SVG Export Plug-In  -->
<!DOCTYPE svg PUBLIC "-//W3C//DTD SVG 1.1//EN" "http://www.w3.org/Graphics/SVG/1.1/DTD/svg11.dtd" [
	<!ENTITY ns_flows "http://ns.adobe.com/Flows/1.0/">
]>
<svg version="1.1"
	 xmlns="http://www.w3.org/2000/svg" xmlns:xlink="http://www.w3.org/1999/xlink" xmlns:a="http://ns.adobe.com/AdobeSVGViewerExtensions/3.0/"
	 x="0px" y="0px" width="300px" height="300px" viewBox="-15.54 -15.54 300 300" enable-background="new -15.54 -15.54 300 300"
	 xml:space="preserve">
<defs>
</defs>
<path fill="#211915" d="M26.439,199.702c0.101,0,0.182-0.092,0.182-0.204v-0.375c0-0.112,0.091-0.203,0.203-0.203H27.1
	c0.112,0,0.203,0.091,0.203,0.203v0.375c0,0.112,0.081,0.204,0.182,0.204c0.1,0,0.182-0.092,0.182-0.204v-1.346
	c0-0.113-0.082-0.203-0.182-0.203c-0.101,0-0.182,0.09-0.182,0.203v0.263c0,0.11-0.091,0.203-0.203,0.203h-0.275
	c-0.112,0-0.203-0.093-0.203-0.203v-0.263c0-0.113-0.081-0.203-0.182-0.203s-0.182,0.09-0.182,0.203v1.346
	C26.258,199.611,26.339,199.702,26.439,199.702L26.439,199.702z M26.439,199.702"/>
<path fill="#211915" d="M28.793,199.75c0.25,0,0.442-0.067,0.574-0.204c0.177-0.167,0.265-0.409,0.265-0.723
	c0-0.321-0.088-0.562-0.265-0.723c-0.132-0.137-0.324-0.204-0.574-0.204c-0.251,0-0.442,0.067-0.574,0.204
	c-0.178,0.161-0.267,0.401-0.267,0.723c0,0.313,0.089,0.556,0.267,0.723C28.351,199.683,28.542,199.75,28.793,199.75L28.793,199.75z
	 M28.446,198.366c0.086-0.106,0.202-0.16,0.347-0.16c0.146,0,0.26,0.054,0.345,0.162c0.086,0.105,0.129,0.259,0.129,0.455
	c0,0.197-0.043,0.351-0.129,0.456c-0.085,0.106-0.199,0.161-0.345,0.161c-0.145,0-0.261-0.055-0.347-0.161
	c-0.088-0.105-0.13-0.259-0.13-0.456S28.358,198.474,28.446,198.366L28.446,198.366z M28.446,198.366"/>
<path fill="#211915" d="M29.968,198.26h0.121c0.112,0,0.202,0.09,0.202,0.203v1.035c0,0.113,0.083,0.204,0.186,0.204
	c0.101,0,0.184-0.091,0.184-0.204v-1.035c0-0.113,0.09-0.203,0.202-0.203h0.118c0.113,0,0.203-0.07,0.203-0.155
	s-0.09-0.155-0.203-0.155h-1.013c-0.112,0-0.203,0.07-0.203,0.155S29.855,198.26,29.968,198.26L29.968,198.26z M29.968,198.26"/>
<path fill="#211915" d="M31.612,199.702h0.921c0.113,0,0.204-0.072,0.204-0.158c0-0.087-0.091-0.158-0.204-0.158H31.97
	c-0.112,0-0.203-0.09-0.203-0.203v-0.044c0-0.112,0.091-0.202,0.203-0.202h0.444c0.113,0,0.204-0.068,0.204-0.153
	c0-0.084-0.091-0.151-0.204-0.151H31.97c-0.112,0-0.203-0.085-0.203-0.188c0-0.102,0.091-0.187,0.203-0.187h0.521
	c0.111,0,0.203-0.068,0.203-0.153s-0.092-0.155-0.203-0.155h-0.879c-0.113,0-0.204,0.09-0.204,0.203v1.346
	C31.408,199.611,31.499,199.702,31.612,199.702L31.612,199.702z M31.612,199.702"/>
<path fill="#211915" d="M33.225,199.702h0.835c0.112,0,0.203-0.072,0.203-0.158c0-0.087-0.091-0.158-0.203-0.158h-0.47
	c-0.111,0-0.202-0.09-0.202-0.203v-1.03c0-0.113-0.082-0.203-0.183-0.203c-0.102,0-0.184,0.09-0.184,0.203v1.346
	C33.021,199.611,33.111,199.702,33.225,199.702L33.225,199.702z M33.225,199.702"/>
<path fill="#211915" d="M28.117,200.337h-1.41c-0.129,0-0.235,0.106-0.235,0.235v1.47c0,0.131,0.106,0.234,0.235,0.234h1.41
	c0.129,0,0.233-0.104,0.233-0.234v-1.47C28.351,200.443,28.246,200.337,28.117,200.337L28.117,200.337z M28.117,200.337"/>
<path fill="#211915" d="M30.801,200.324l-1.409,0.024c-0.129,0.003-0.232,0.108-0.231,0.238l0.025,1.471
	c0.004,0.13,0.11,0.233,0.24,0.23l1.408-0.024c0.13-0.001,0.234-0.108,0.231-0.238l-0.025-1.471
	C31.037,200.426,30.931,200.322,30.801,200.324L30.801,200.324z M30.801,200.324"/>
<path fill="#211915" d="M33.52,200.337h-1.41c-0.13,0-0.235,0.106-0.235,0.235v1.47c0,0.131,0.105,0.234,0.235,0.234h1.41
	c0.129,0,0.234-0.104,0.234-0.234v-1.47C33.754,200.443,33.648,200.337,33.52,200.337L33.52,200.337z M33.52,200.337"/>
<path fill="#211915" d="M28.117,202.921h-1.41c-0.129,0-0.235,0.106-0.235,0.235v1.47c0,0.129,0.106,0.234,0.235,0.234h1.41
	c0.129,0,0.233-0.105,0.233-0.234v-1.47C28.351,203.027,28.246,202.921,28.117,202.921L28.117,202.921z M28.117,202.921"/>
<path fill="#211915" d="M30.801,202.908l-1.409,0.024c-0.129,0.002-0.232,0.109-0.231,0.238l0.025,1.471
	c0.004,0.13,0.11,0.233,0.24,0.23l1.408-0.024c0.13-0.002,0.234-0.109,0.231-0.239l-0.025-1.469
	C31.037,203.01,30.931,202.906,30.801,202.908L30.801,202.908z M30.801,202.908"/>
<path fill="#211915" d="M33.52,202.921h-1.41c-0.13,0-0.235,0.106-0.235,0.235v1.47c0,0.129,0.105,0.234,0.235,0.234h1.41
	c0.129,0,0.234-0.105,0.234-0.234v-1.47C33.754,203.027,33.648,202.921,33.52,202.921L33.52,202.921z M33.52,202.921"/>
<path fill="#211915" d="M35.126,196.231l-2.584-2.348c-0.001-0.003-0.005-0.003-0.007-0.006c-0.032-0.028-0.069-0.049-0.107-0.063
	c-0.005-0.001-0.01-0.003-0.015-0.005c-0.032-0.011-0.065-0.017-0.098-0.017c-0.004,0-0.006-0.001-0.01-0.001h-9.964v11.564
	c0,0.003,0.001,0.007,0.002,0.01c0.002,0.035,0.007,0.068,0.018,0.1c0.001,0.005,0.002,0.011,0.005,0.016
	c0.015,0.038,0.036,0.074,0.065,0.107c0.002,0.003,0.002,0.005,0.004,0.007l2.389,2.583c0.029,0.033,0.065,0.058,0.102,0.075v0.038
	h10.316v-11.916h-0.025C35.198,196.323,35.171,196.272,35.126,196.231L35.126,196.231z M24.926,207.251l-1.88-2.034v-10.223
	l1.88,1.879V207.251z M24.813,195.765l-0.892-0.892l-0.376-0.378h8.624l0.011,0.011l1.876,1.706l0.181,0.164h-0.329l-0.01,0.009
	l-0.01-0.009h-8.464L24.813,195.765z M34.536,207.589h-2.464v-0.878c0-0.389-0.315-0.704-0.705-0.704h-2.51
	c-0.389,0-0.704,0.315-0.704,0.704v0.878H25.63v-10.51h8.907L34.536,207.589L34.536,207.589z M34.536,207.589"/>
<circle fill="#003142" cx="134.46" cy="134.46" r="134.46"/>
<path fill="#FFFFFF" d="M227.905,114.95l-42.395,20.351l-32.076,91.345c-0.54,1.524-2.167,3.346-3.625,4.041l-15.896,7.632
	c-1.455,0.693-2.516-0.046-2.342-1.658l8.295-79.441l-10.659,5.114c-18.989,9.106-61.784,20.15-69.35,14.007
	c-15.558-12.632-34.804-35.724-34.804-35.724s3.541-1.7,9.277-4.454l40.641,13.09L203.65,87.469
	c11.437-5.49,35.357-3.722,39.575,5.06C246.015,98.317,239.482,109.395,227.905,114.95z M72.889,100.861l34.936,22.466
	l34.331-16.483L94.384,90.076c-1.527-0.539-3.97-0.402-5.427,0.29l-15.896,7.631C71.607,98.701,71.527,99.993,72.889,100.861z"/>
</svg>
